STARTFONT 2.1
COMMENT  (c) Copyright Bigelow & Holmes 1986, 1985. Lucida is a registered
COMMENT  trademark of Bigelow & Holmes. See LEGAL NOTICE file for terms 
COMMENT  of the license. 
FONT -B&H-LucidaBright-Medium-R-Normal--11-80-100-100-P-63-ISO8859-1
SIZE 8 100 100
FONTBOUNDINGBOX 17 13 -6 -2
STARTPROPERTIES 19
COMMENT Begin LogicalFontDescription
FONTNAME_REGISTRY ""
FOUNDRY "B&H"
FAMILY_NAME "LucidaBright"
WEIGHT_NAME "Medium"
SLANT "R"
SETWIDTH_NAME "Normal"
ADD_STYLE_NAME ""
PIXEL_SIZE 11
POINT_SIZE 80
RESOLUTION_X 100
RESOLUTION_Y 100
SPACING "P"
AVERAGE_WIDTH 63
CHARSET_REGISTRY "ISO8859"
CHARSET_ENCODING "1"
COMMENT END LogicalFontDescription
FONT_ASCENT 10
FONT_DESCENT 3
DEFAULT_CHAR 32
COPYRIGHT "Copyright Bigelow & Holmes 1986, 1985."
ENDPROPERTIES
CHARS 228
STARTCHAR space
ENCODING 32
SWIDTH 42 0
DWIDTH 3 0
BBX 1 1 0 0
BITMAP
00
ENDCHAR
STARTCHAR exclam
ENCODING 33
SWIDTH 42 0
DWIDTH 3 0
BBX 1 9 1 0
BITMAP
80
80
80
80
80
80
80
00
80
ENDCHAR
STARTCHAR quotedbl
ENCODING 34
SWIDTH 42 0
DWIDTH 4 0
BBX 2 3 1 6
BITMAP
C0
C0
C0
ENDCHAR
STARTCHAR numbersign
ENCODING 35
SWIDTH 42 0
DWIDTH 7 0
BBX 7 9 0 0
BITMAP
14
24
7E
28
28
FC
48
50
50
ENDCHAR
STARTCHAR dollar
ENCODING 36
SWIDTH 42 0
DWIDTH 7 0
BBX 5 10 1 -1
BITMAP
38
E8
A0
E0
70
28
28
A8
F0
20
ENDCHAR
STARTCHAR percent
ENCODING 37
SWIDTH 42 0
DWIDTH 7 0
BBX 6 9 1 0
BITMAP
44
A8
A8
50
38
34
54
54
88
ENDCHAR
STARTCHAR ampersand
ENCODING 38
SWIDTH 42 0
DWIDTH 8 0
BBX 8 9 0 0
BITMAP
30
48
48
70
97
92
8A
CC
7B
ENDCHAR
STARTCHAR quoteright
ENCODING 39
SWIDTH 42 0
DWIDTH 3 0
BBX 1 4 1 5
BITMAP
80
80
80
80
ENDCHAR
STARTCHAR parenleft
ENCODING 40
SWIDTH 42 0
DWIDTH 3 0
BBX 3 11 1 -2
BITMAP
60
80
80
80
80
80
80
80
80
80
40
ENDCHAR
STARTCHAR parenright
ENCODING 41
SWIDTH 42 0
DWIDTH 3 0
BBX 3 11 2 -2
BITMAP
40
60
20
20
20
20
20
20
20
60
80
ENDCHAR
STARTCHAR asterisk
ENCODING 42
SWIDTH 42 0
DWIDTH 5 0
BBX 4 4 1 5
BITMAP
40
F0
60
60
ENDCHAR
STARTCHAR plus
ENCODING 43
SWIDTH 42 0
DWIDTH 7 0
BBX 7 8 0 0
BITMAP
10
10
10
10
FE
10
10
10
ENDCHAR
STARTCHAR comma
ENCODING 44
SWIDTH 42 0
DWIDTH 3 0
BBX 1 4 1 -2
BITMAP
80
80
80
80
ENDCHAR
STARTCHAR minus
ENCODING 45
SWIDTH 42 0
DWIDTH 7 0
BBX 6 1 0 3
BITMAP
FC
ENDCHAR
STARTCHAR period
ENCODING 46
SWIDTH 42 0
DWIDTH 3 0
BBX 1 1 1 0
BITMAP
80
ENDCHAR
STARTCHAR slash
ENCODING 47
SWIDTH 42 0
DWIDTH 6 0
BBX 6 11 0 -2
BITMAP
04
08
08
18
10
30
20
60
40
40
80
ENDCHAR
STARTCHAR zero
ENCODING 48
SWIDTH 42 0
DWIDTH 7 0
BBX 6 9 0 0
BITMAP
30
48
84
84
84
84
84
48
30
ENDCHAR
STARTCHAR one
ENCODING 49
SWIDTH 42 0
DWIDTH 7 0
BBX 4 9 1 0
BITMAP
E0
20
20
20
20
20
20
20
F0
ENDCHAR
STARTCHAR two
ENCODING 50
SWIDTH 42 0
DWIDTH 7 0
BBX 5 9 1 0
BITMAP
70
88
88
08
10
20
40
80
F8
ENDCHAR
STARTCHAR three
ENCODING 51
SWIDTH 42 0
DWIDTH 7 0
BBX 5 9 1 0
BITMAP
F0
88
08
08
70
08
08
88
F0
ENDCHAR
STARTCHAR four
ENCODING 52
SWIDTH 42 0
DWIDTH 7 0
BBX 6 9 0 0
BITMAP
18
18
28
48
C8
FC
08
08
1C
ENDCHAR
STARTCHAR five
ENCODING 53
SWIDTH 42 0
DWIDTH 7 0
BBX 4 9 1 0
BITMAP
F0
80
80
E0
10
10
10
90
E0
ENDCHAR
STARTCHAR six
ENCODING 54
SWIDTH 42 0
DWIDTH 7 0
BBX 5 9 1 0
BITMAP
38
48
80
F0
88
88
88
48
70
ENDCHAR
STARTCHAR seven
ENCODING 55
SWIDTH 42 0
DWIDTH 7 0
BBX 5 9 1 0
BITMAP
F8
08
10
30
20
40
40
C0
80
ENDCHAR
STARTCHAR eight
ENCODING 56
SWIDTH 42 0
DWIDTH 7 0
BBX 5 9 1 0
BITMAP
70
88
88
48
70
88
88
88
70
ENDCHAR
STARTCHAR nine
ENCODING 57
SWIDTH 42 0
DWIDTH 7 0
BBX 5 9 1 0
BITMAP
70
90
88
88
88
78
08
90
E0
ENDCHAR
STARTCHAR colon
ENCODING 58
SWIDTH 42 0
DWIDTH 3 0
BBX 1 6 1 0
BITMAP
80
00
00
00
00
80
ENDCHAR
STARTCHAR semicolon
ENCODING 59
SWIDTH 42 0
DWIDTH 3 0
BBX 1 8 1 -2
BITMAP
80
00
00
00
80
80
80
80
ENDCHAR
STARTCHAR less
ENCODING 60
SWIDTH 42 0
DWIDTH 7 0
BBX 6 8 0 0
BITMAP
04
18
30
C0
C0
30
18
04
ENDCHAR
STARTCHAR equal
ENCODING 61
SWIDTH 42 0
DWIDTH 7 0
BBX 6 3 0 2
BITMAP
FC
00
FC
ENDCHAR
STARTCHAR greater
ENCODING 62
SWIDTH 42 0
DWIDTH 7 0
BBX 6 8 0 0
BITMAP
80
60
30
0C
0C
30
60
80
ENDCHAR
STARTCHAR question
ENCODING 63
SWIDTH 42 0
DWIDTH 5 0
BBX 5 9 0 0
BITMAP
F0
88
08
10
30
20
20
00
20
ENDCHAR
STARTCHAR at
ENCODING 64
SWIDTH 42 0
DWIDTH 10 0
BBX 8 9 1 0
BITMAP
1E
22
5D
99
A9
AD
B6
40
3C
ENDCHAR
STARTCHAR A
ENCODING 65
SWIDTH 42 0
DWIDTH 8 0
BBX 8 9 0 0
BITMAP
10
18
18
28
24
7C
42
82
C7
ENDCHAR
STARTCHAR B
ENCODING 66
SWIDTH 42 0
DWIDTH 7 0
BBX 6 9 0 0
BITMAP
F8
44
44
48
78
4C
44
44
F8
ENDCHAR
STARTCHAR C
ENCODING 67
SWIDTH 42 0
DWIDTH 8 0
BBX 6 9 1 0
BITMAP
3C
44
84
80
80
80
80
44
38
ENDCHAR
STARTCHAR D
ENCODING 68
SWIDTH 42 0
DWIDTH 8 0
BBX 8 9 0 0
BITMAP
FC
42
41
41
41
41
41
42
FC
ENDCHAR
STARTCHAR E
ENCODING 69
SWIDTH 42 0
DWIDTH 6 0
BBX 5 9 1 0
BITMAP
F8
48
40
50
70
50
40
48
F8
ENDCHAR
STARTCHAR F
ENCODING 70
SWIDTH 42 0
DWIDTH 6 0
BBX 5 9 0 0
BITMAP
F8
48
40
50
70
50
40
40
C0
ENDCHAR
STARTCHAR G
ENCODING 71
SWIDTH 42 0
DWIDTH 8 0
BBX 7 9 1 0
BITMAP
3C
44
80
80
80
8E
84
44
3C
ENDCHAR
STARTCHAR H
ENCODING 72
SWIDTH 42 0
DWIDTH 8 0
BBX 8 9 0 0
BITMAP
E7
42
42
42
7E
42
42
42
E7
ENDCHAR
STARTCHAR I
ENCODING 73
SWIDTH 42 0
DWIDTH 4 0
BBX 3 9 0 0
BITMAP
E0
40
40
40
40
40
40
40
E0
ENDCHAR
STARTCHAR J
ENCODING 74
SWIDTH 42 0
DWIDTH 5 0
BBX 4 11 0 -2
BITMAP
30
20
20
20
20
20
20
20
20
A0
C0
ENDCHAR
STARTCHAR K
ENCODING 75
SWIDTH 42 0
DWIDTH 8 0
BBX 8 9 0 0
BITMAP
EE
44
48
50
60
50
4C
46
EF
ENDCHAR
STARTCHAR L
ENCODING 76
SWIDTH 42 0
DWIDTH 6 0
BBX 6 9 0 0
BITMAP
E0
40
40
40
40
40
40
44
FC
ENDCHAR
STARTCHAR M
ENCODING 77
SWIDTH 42 0
DWIDTH 9 0
BBX 9 9 0 0
BITMAP
E180
6300
6300
5700
5500
5D00
4900
4900
E380
ENDCHAR
STARTCHAR N
ENCODING 78
SWIDTH 42 0
DWIDTH 8 0
BBX 8 9 0 0
BITMAP
C7
62
62
52
4A
4A
46
42
E2
ENDCHAR
STARTCHAR O
ENCODING 79
SWIDTH 42 0
DWIDTH 9 0
BBX 7 9 1 0
BITMAP
38
44
82
82
82
82
82
44
38
ENDCHAR
STARTCHAR P
ENCODING 80
SWIDTH 42 0
DWIDTH 6 0
BBX 6 9 0 0
BITMAP
F8
44
44
4C
78
40
40
40
E0
ENDCHAR
STARTCHAR Q
ENCODING 81
SWIDTH 42 0
DWIDTH 9 0
BBX 9 11 1 -2
BITMAP
3800
4400
8200
8200
8200
8200
8200
4400
3C00
0600
0380
ENDCHAR
STARTCHAR R
ENCODING 82
SWIDTH 42 0
DWIDTH 7 0
BBX 7 9 0 0
BITMAP
F8
44
44
44
78
48
48
44
E6
ENDCHAR
STARTCHAR S
ENCODING 83
SWIDTH 42 0
DWIDTH 6 0
BBX 5 9 1 0
BITMAP
78
88
80
C0
30
18
08
88
F0
ENDCHAR
STARTCHAR T
ENCODING 84
SWIDTH 42 0
DWIDTH 7 0
BBX 7 9 0 0
BITMAP
FE
10
10
10
10
10
10
10
38
ENDCHAR
STARTCHAR U
ENCODING 85
SWIDTH 42 0
DWIDTH 8 0
BBX 8 9 0 0
BITMAP
E7
42
42
42
42
42
42
66
3C
ENDCHAR
STARTCHAR V
ENCODING 86
SWIDTH 42 0
DWIDTH 8 0
BBX 8 9 0 0
BITMAP
E3
43
42
22
24
14
14
18
08
ENDCHAR
STARTCHAR W
ENCODING 87
SWIDTH 42 0
DWIDTH 10 0
BBX 10 9 0 0
BITMAP
E4C0
4C80
4C80
4C80
2C80
3300
3300
3300
2200
ENDCHAR
STARTCHAR X
ENCODING 88
SWIDTH 42 0
DWIDTH 7 0
BBX 7 9 0 0
BITMAP
E6
44
2C
38
10
28
48
44
CE
ENDCHAR
STARTCHAR Y
ENCODING 89
SWIDTH 42 0
DWIDTH 7 0
BBX 7 9 0 0
BITMAP
E6
44
24
28
18
10
10
10
38
ENDCHAR
STARTCHAR Z
ENCODING 90
SWIDTH 42 0
DWIDTH 7 0
BBX 5 9 1 0
BITMAP
F8
90
10
20
20
60
40
48
F8
ENDCHAR
STARTCHAR bracketleft
ENCODING 91
SWIDTH 42 0
DWIDTH 3 0
BBX 2 11 1 -2
BITMAP
C0
80
80
80
80
80
80
80
80
80
C0
ENDCHAR
STARTCHAR backslash
ENCODING 92
SWIDTH 42 0
DWIDTH 6 0
BBX 6 11 0 -2
BITMAP
80
40
40
60
20
30
10
18
08
08
04
ENDCHAR
STARTCHAR bracketright
ENCODING 93
SWIDTH 42 0
DWIDTH 3 0
BBX 2 11 0 -2
BITMAP
C0
40
40
40
40
40
40
40
40
40
C0
ENDCHAR
STARTCHAR asciicircum
ENCODING 94
SWIDTH 42 0
DWIDTH 7 0
BBX 6 8 0 1
BITMAP
10
30
30
70
48
48
84
84
ENDCHAR
STARTCHAR underscore
ENCODING 95
SWIDTH 42 0
DWIDTH 5 0
BBX 4 1 1 -1
BITMAP
F0
ENDCHAR
STARTCHAR quoteleft
ENCODING 96
SWIDTH 42 0
DWIDTH 3 0
BBX 2 4 0 5
BITMAP
C0
80
80
C0
ENDCHAR
STARTCHAR a
ENCODING 97
SWIDTH 42 0
DWIDTH 6 0
BBX 5 6 1 0
BITMAP
F0
10
70
90
90
68
ENDCHAR
STARTCHAR b
ENCODING 98
SWIDTH 42 0
DWIDTH 7 0
BBX 6 9 0 0
BITMAP
C0
40
40
78
44
44
44
44
78
ENDCHAR
STARTCHAR c
ENCODING 99
SWIDTH 42 0
DWIDTH 6 0
BBX 5 6 0 0
BITMAP
78
C8
80
80
C0
78
ENDCHAR
STARTCHAR d
ENCODING 100
SWIDTH 42 0
DWIDTH 7 0
BBX 6 9 1 0
BITMAP
18
08
08
78
88
88
88
88
7C
ENDCHAR
STARTCHAR e
ENCODING 101
SWIDTH 42 0
DWIDTH 6 0
BBX 5 6 0 0
BITMAP
70
88
F8
80
C0
78
ENDCHAR
STARTCHAR f
ENCODING 102
SWIDTH 42 0
DWIDTH 4 0
BBX 4 9 0 0
BITMAP
70
50
40
E0
40
40
40
40
E0
ENDCHAR
STARTCHAR g
ENCODING 103
SWIDTH 42 0
DWIDTH 6 0
BBX 5 8 1 -2
BITMAP
78
90
90
60
80
78
88
F0
ENDCHAR
STARTCHAR h
ENCODING 104
SWIDTH 42 0
DWIDTH 7 0
BBX 7 9 0 0
BITMAP
C0
40
40
7C
44
44
44
44
EE
ENDCHAR
STARTCHAR i
ENCODING 105
SWIDTH 42 0
DWIDTH 3 0
BBX 3 9 0 0
BITMAP
40
00
00
C0
40
40
40
40
E0
ENDCHAR
STARTCHAR j
ENCODING 106
SWIDTH 42 0
DWIDTH 4 0
BBX 3 11 0 -2
BITMAP
20
00
00
60
20
20
20
20
20
A0
E0
ENDCHAR
STARTCHAR k
ENCODING 107
SWIDTH 42 0
DWIDTH 7 0
BBX 6 9 0 0
BITMAP
C0
40
40
4C
58
60
50
58
EC
ENDCHAR
STARTCHAR l
ENCODING 108
SWIDTH 42 0
DWIDTH 3 0
BBX 3 9 0 0
BITMAP
C0
40
40
40
40
40
40
40
E0
ENDCHAR
STARTCHAR m
ENCODING 109
SWIDTH 42 0
DWIDTH 10 0
BBX 11 6 0 0
BITMAP
FFC0
4440
4440
4440
4440
EEE0
ENDCHAR
STARTCHAR n
ENCODING 110
SWIDTH 42 0
DWIDTH 7 0
BBX 7 6 0 0
BITMAP
FC
44
44
44
44
EE
ENDCHAR
STARTCHAR o
ENCODING 111
SWIDTH 42 0
DWIDTH 7 0
BBX 6 6 0 0
BITMAP
78
CC
84
84
CC
78
ENDCHAR
STARTCHAR p
ENCODING 112
SWIDTH 42 0
DWIDTH 7 0
BBX 6 8 0 -2
BITMAP
F8
44
44
44
44
78
40
E0
ENDCHAR
STARTCHAR q
ENCODING 113
SWIDTH 42 0
DWIDTH 7 0
BBX 6 8 1 -2
BITMAP
78
88
88
88
88
78
08
1C
ENDCHAR
STARTCHAR r
ENCODING 114
SWIDTH 42 0
DWIDTH 5 0
BBX 4 6 0 0
BITMAP
F0
50
40
40
40
E0
ENDCHAR
STARTCHAR s
ENCODING 115
SWIDTH 42 0
DWIDTH 6 0
BBX 4 6 1 0
BITMAP
F0
90
C0
B0
90
E0
ENDCHAR
STARTCHAR t
ENCODING 116
SWIDTH 42 0
DWIDTH 4 0
BBX 4 9 0 0
BITMAP
40
40
40
F0
40
40
40
40
70
ENDCHAR
STARTCHAR u
ENCODING 117
SWIDTH 42 0
DWIDTH 7 0
BBX 7 6 0 0
BITMAP
CC
44
44
44
44
7E
ENDCHAR
STARTCHAR v
ENCODING 118
SWIDTH 42 0
DWIDTH 6 0
BBX 6 6 0 0
BITMAP
EC
44
48
28
30
10
ENDCHAR
STARTCHAR w
ENCODING 119
SWIDTH 42 0
DWIDTH 9 0
BBX 9 6 0 0
BITMAP
E980
4880
5500
5500
3200
2200
ENDCHAR
STARTCHAR x
ENCODING 120
SWIDTH 42 0
DWIDTH 6 0
BBX 6 6 0 0
BITMAP
EC
48
30
70
48
DC
ENDCHAR
STARTCHAR y
ENCODING 121
SWIDTH 42 0
DWIDTH 6 0
BBX 6 8 0 -2
BITMAP
EC
44
48
28
30
10
20
60
ENDCHAR
STARTCHAR z
ENCODING 122
SWIDTH 42 0
DWIDTH 7 0
BBX 5 6 1 0
BITMAP
F8
90
20
60
48
F8
ENDCHAR
STARTCHAR braceleft
ENCODING 123
SWIDTH 42 0
DWIDTH 4 0
BBX 3 11 0 -2
BITMAP
20
40
40
40
40
80
40
40
40
40
20
ENDCHAR
STARTCHAR bar
ENCODING 124
SWIDTH 42 0
DWIDTH 3 0
BBX 1 11 1 -2
BITMAP
80
80
80
80
80
80
80
80
80
80
80
ENDCHAR
STARTCHAR braceright
ENCODING 125
SWIDTH 42 0
DWIDTH 4 0
BBX 3 11 1 -2
BITMAP
80
40
40
40
40
20
40
40
40
40
80
ENDCHAR
STARTCHAR asciitilde
ENCODING 126
SWIDTH 42 0
DWIDTH 7 0
BBX 6 3 0 2
BITMAP
64
B4
9C
ENDCHAR
STARTCHAR exclamdown
ENCODING 161
SWIDTH 42 0
DWIDTH 3 0
BBX 1 8 1 -2
BITMAP
80
00
80
80
80
80
80
80
ENDCHAR
STARTCHAR cent
ENCODING 162
SWIDTH 42 0
DWIDTH 7 0
BBX 5 9 1 0
BITMAP
20
78
A8
A0
A0
A0
A0
78
20
ENDCHAR
STARTCHAR sterling
ENCODING 163
SWIDTH 42 0
DWIDTH 7 0
BBX 4 9 2 0
BITMAP
30
50
40
40
C0
40
40
40
F0
ENDCHAR
STARTCHAR currency
ENCODING 164
SWIDTH 42 0
DWIDTH 7 0
BBX 7 7 0 1
BITMAP
82
7C
44
44
44
7C
82
ENDCHAR
STARTCHAR yen
ENCODING 165
SWIDTH 42 0
DWIDTH 7 0
BBX 7 9 0 0
BITMAP
E6
44
28
18
7C
10
7C
10
38
ENDCHAR
STARTCHAR brokenbar
ENCODING 166
SWIDTH 42 0
DWIDTH 3 0
BBX 1 11 1 -2
BITMAP
80
80
80
80
80
00
80
80
80
80
80
ENDCHAR
STARTCHAR section
ENCODING 167
SWIDTH 42 0
DWIDTH 7 0
BBX 5 11 1 -2
BITMAP
78
88
80
40
B0
88
68
10
08
88
F0
ENDCHAR
STARTCHAR dieresis
ENCODING 168
SWIDTH 42 0
DWIDTH 7 0
BBX 3 1 2 8
BITMAP
A0
ENDCHAR
STARTCHAR copyright
ENCODING 169
SWIDTH 42 0
DWIDTH 9 0
BBX 7 9 1 0
BITMAP
38
44
DE
AA
A2
A2
DE
44
38
ENDCHAR
STARTCHAR ordfeminine
ENCODING 170
SWIDTH 42 0
DWIDTH 5 0
BBX 5 5 0 4
BITMAP
F0
90
70
90
F8
ENDCHAR
STARTCHAR guillemotleft
ENCODING 171
SWIDTH 42 0
DWIDTH 6 0
BBX 5 6 0 0
BITMAP
28
50
B0
F0
50
28
ENDCHAR
STARTCHAR logicalnot
ENCODING 172
SWIDTH 42 0
DWIDTH 7 0
BBX 6 3 0 2
BITMAP
FC
04
04
ENDCHAR
STARTCHAR hyphen
ENCODING 173
SWIDTH 42 0
DWIDTH 4 0
BBX 3 1 0 3
BITMAP
E0
ENDCHAR
STARTCHAR registered
ENCODING 174
SWIDTH 42 0
DWIDTH 7 0
BBX 4 6 1 3
BITMAP
60
90
F0
F0
D0
60
ENDCHAR
STARTCHAR macron
ENCODING 175
SWIDTH 42 0
DWIDTH 7 0
BBX 3 1 2 8
BITMAP
E0
ENDCHAR
STARTCHAR degree
ENCODING 176
SWIDTH 42 0
DWIDTH 3 0
BBX 2 3 0 6
BITMAP
C0
C0
C0
ENDCHAR
STARTCHAR plusminus
ENCODING 177
SWIDTH 42 0
DWIDTH 7 0
BBX 7 8 0 0
BITMAP
10
10
FE
10
10
10
00
FE
ENDCHAR
STARTCHAR twosuperior
ENCODING 178
SWIDTH 42 0
DWIDTH 4 0
BBX 3 5 -6 4
BITMAP
E0
A0
60
C0
E0
ENDCHAR
STARTCHAR threesuperior
ENCODING 179
SWIDTH 42 0
DWIDTH 4 0
BBX 3 5 -6 4
BITMAP
E0
E0
40
A0
E0
ENDCHAR
STARTCHAR acute
ENCODING 180
SWIDTH 42 0
DWIDTH 7 0
BBX 2 1 2 8
BITMAP
C0
ENDCHAR
STARTCHAR mu
ENCODING 181
SWIDTH 42 0
DWIDTH 7 0
BBX 7 8 0 -2
BITMAP
CC
44
44
44
44
7E
40
40
ENDCHAR
STARTCHAR paragraph
ENCODING 182
SWIDTH 42 0
DWIDTH 7 0
BBX 5 11 0 -2
BITMAP
F8
F8
F8
F8
38
18
18
18
18
18
18
ENDCHAR
STARTCHAR periodcentered
ENCODING 183
SWIDTH 42 0
DWIDTH 7 0
BBX 1 1 3 3
BITMAP
80
ENDCHAR
STARTCHAR cedilla
ENCODING 184
SWIDTH 42 0
DWIDTH 7 0
BBX 2 3 2 -2
BITMAP
80
40
C0
ENDCHAR
STARTCHAR onesuperior
ENCODING 185
SWIDTH 42 0
DWIDTH 4 0
BBX 3 5 -6 4
BITMAP
C0
40
40
40
E0
ENDCHAR
STARTCHAR ordmasculine
ENCODING 186
SWIDTH 42 0
DWIDTH 5 0
BBX 4 5 0 4
BITMAP
60
90
90
90
60
ENDCHAR
STARTCHAR guillemotright
ENCODING 187
SWIDTH 42 0
DWIDTH 6 0
BBX 5 6 0 0
BITMAP
A0
50
78
68
50
A0
ENDCHAR
STARTCHAR onequarter
ENCODING 188
SWIDTH 42 0
DWIDTH 8 0
BBX 8 9 2 0
BITMAP
C2
44
4C
48
F6
2E
6F
42
87
ENDCHAR
STARTCHAR onehalf
ENCODING 189
SWIDTH 42 0
DWIDTH 8 0
BBX 8 9 2 0
BITMAP
C2
44
4C
48
F7
25
63
46
87
ENDCHAR
STARTCHAR threequarters
ENCODING 190
SWIDTH 42 0
DWIDTH 8 0
BBX 8 9 2 0
BITMAP
E2
E4
4C
A8
F6
2E
6F
42
87
ENDCHAR
STARTCHAR questiondown
ENCODING 191
SWIDTH 42 0
DWIDTH 5 0
BBX 5 8 0 -2
BITMAP
20
00
20
60
40
80
88
78
ENDCHAR
STARTCHAR Agrave
ENCODING 192
SWIDTH 42 0
DWIDTH 8 0
BBX 8 10 0 0
BITMAP
18
10
18
18
28
24
7C
42
82
C7
ENDCHAR
STARTCHAR Aacute
ENCODING 193
SWIDTH 42 0
DWIDTH 8 0
BBX 8 10 0 0
BITMAP
18
10
18
18
28
24
7C
42
82
C7
ENDCHAR
STARTCHAR Acircumflex
ENCODING 194
SWIDTH 42 0
DWIDTH 8 0
BBX 8 10 0 0
BITMAP
3C
10
18
18
28
24
7C
42
82
C7
ENDCHAR
STARTCHAR Atilde
ENCODING 195
SWIDTH 42 0
DWIDTH 8 0
BBX 8 10 0 0
BITMAP
3C
10
18
18
28
24
7C
42
82
C7
ENDCHAR
STARTCHAR Adieresis
ENCODING 196
SWIDTH 42 0
DWIDTH 8 0
BBX 8 10 0 0
BITMAP
28
10
18
18
28
24
7C
42
82
C7
ENDCHAR
STARTCHAR Aring
ENCODING 197
SWIDTH 42 0
DWIDTH 8 0
BBX 8 11 0 0
BITMAP
18
24
18
18
18
28
24
7C
42
82
C7
ENDCHAR
STARTCHAR AE
ENCODING 198
SWIDTH 42 0
DWIDTH 10 0
BBX 10 9 0 0
BITMAP
07C0
0E40
0A80
1380
2280
3E00
4200
4240
C7C0
ENDCHAR
STARTCHAR Ccedilla
ENCODING 199
SWIDTH 42 0
DWIDTH 8 0
BBX 6 11 1 -2
BITMAP
3C
44
84
80
80
80
80
44
38
10
30
ENDCHAR
STARTCHAR Egrave
ENCODING 200
SWIDTH 42 0
DWIDTH 6 0
BBX 5 10 1 0
BITMAP
20
F8
48
40
50
70
50
40
48
F8
ENDCHAR
STARTCHAR Eacute
ENCODING 201
SWIDTH 42 0
DWIDTH 6 0
BBX 5 10 1 0
BITMAP
20
F8
48
40
50
70
50
40
48
F8
ENDCHAR
STARTCHAR Ecircumflex
ENCODING 202
SWIDTH 42 0
DWIDTH 6 0
BBX 5 10 1 0
BITMAP
30
F8
48
40
50
70
50
40
48
F8
ENDCHAR
STARTCHAR Edieresis
ENCODING 203
SWIDTH 42 0
DWIDTH 6 0
BBX 5 10 1 0
BITMAP
50
F8
48
40
50
70
50
40
48
F8
ENDCHAR
STARTCHAR Igrave
ENCODING 204
SWIDTH 42 0
DWIDTH 4 0
BBX 3 10 0 0
BITMAP
40
E0
40
40
40
40
40
40
40
E0
ENDCHAR
STARTCHAR Iacute
ENCODING 205
SWIDTH 42 0
DWIDTH 4 0
BBX 3 10 0 0
BITMAP
40
E0
40
40
40
40
40
40
40
E0
ENDCHAR
STARTCHAR Icircumflex
ENCODING 206
SWIDTH 42 0
DWIDTH 4 0
BBX 4 10 1 0
BITMAP
E0
70
20
20
20
20
20
20
20
70
ENDCHAR
STARTCHAR Idieresis
ENCODING 207
SWIDTH 42 0
DWIDTH 4 0
BBX 3 10 0 0
BITMAP
A0
E0
40
40
40
40
40
40
40
E0
ENDCHAR
STARTCHAR Eth
ENCODING 208
SWIDTH 42 0
DWIDTH 8 0
BBX 8 9 0 0
BITMAP
FC
42
41
41
F1
41
41
42
FC
ENDCHAR
STARTCHAR Ntilde
ENCODING 209
SWIDTH 42 0
DWIDTH 8 0
BBX 8 10 0 0
BITMAP
3C
C7
62
62
52
4A
4A
46
42
E2
ENDCHAR
STARTCHAR Ograve
ENCODING 210
SWIDTH 42 0
DWIDTH 9 0
BBX 7 10 1 0
BITMAP
10
38
44
82
82
82
82
82
44
38
ENDCHAR
STARTCHAR Oacute
ENCODING 211
SWIDTH 42 0
DWIDTH 9 0
BBX 7 10 1 0
BITMAP
10
38
44
82
82
82
82
82
44
38
ENDCHAR
STARTCHAR Ocircumflex
ENCODING 212
SWIDTH 42 0
DWIDTH 9 0
BBX 7 10 1 0
BITMAP
70
38
44
82
82
82
82
82
44
38
ENDCHAR
STARTCHAR Otilde
ENCODING 213
SWIDTH 42 0
DWIDTH 9 0
BBX 7 10 1 0
BITMAP
3C
38
44
82
82
82
82
82
44
38
ENDCHAR
STARTCHAR Odieresis
ENCODING 214
SWIDTH 42 0
DWIDTH 9 0
BBX 7 10 1 0
BITMAP
28
38
44
82
82
82
82
82
44
38
ENDCHAR
STARTCHAR multiply
ENCODING 215
SWIDTH 42 0
DWIDTH 7 0
BBX 6 8 0 0
BITMAP
84
CC
48
30
30
48
C8
84
ENDCHAR
STARTCHAR Oslash
ENCODING 216
SWIDTH 42 0
DWIDTH 9 0
BBX 7 9 1 0
BITMAP
3A
46
86
8A
92
A2
C2
44
B8
ENDCHAR
STARTCHAR Ugrave
ENCODING 217
SWIDTH 42 0
DWIDTH 8 0
BBX 8 10 0 0
BITMAP
18
E7
42
42
42
42
42
42
66
3C
ENDCHAR
STARTCHAR Uacute
ENCODING 218
SWIDTH 42 0
DWIDTH 8 0
BBX 8 10 0 0
BITMAP
18
E7
42
42
42
42
42
42
66
3C
ENDCHAR
STARTCHAR Ucircumflex
ENCODING 219
SWIDTH 42 0
DWIDTH 8 0
BBX 8 10 0 0
BITMAP
18
E7
42
42
42
42
42
42
66
3C
ENDCHAR
STARTCHAR Udieresis
ENCODING 220
SWIDTH 42 0
DWIDTH 8 0
BBX 8 10 0 0
BITMAP
14
E7
42
42
42
42
42
42
66
3C
ENDCHAR
STARTCHAR Yacute
ENCODING 221
SWIDTH 42 0
DWIDTH 7 0
BBX 7 10 0 0
BITMAP
18
E6
44
24
28
18
10
10
10
38
ENDCHAR
STARTCHAR Thorn
ENCODING 222
SWIDTH 42 0
DWIDTH 6 0
BBX 6 9 0 0
BITMAP
E0
40
78
44
44
4C
78
40
E0
ENDCHAR
STARTCHAR germandbls
ENCODING 223
SWIDTH 42 0
DWIDTH 7 0
BBX 6 9 0 0
BITMAP
78
48
48
50
50
48
44
54
F8
ENDCHAR
STARTCHAR agrave
ENCODING 224
SWIDTH 42 0
DWIDTH 6 0
BBX 5 7 1 0
BITMAP
20
F0
10
70
90
90
68
ENDCHAR
STARTCHAR aacute
ENCODING 225
SWIDTH 42 0
DWIDTH 6 0
BBX 5 7 1 0
BITMAP
20
F0
10
70
90
90
68
ENDCHAR
STARTCHAR acircumflex
ENCODING 226
SWIDTH 42 0
DWIDTH 6 0
BBX 5 7 1 0
BITMAP
60
F0
10
70
90
90
68
ENDCHAR
STARTCHAR atilde
ENCODING 227
SWIDTH 42 0
DWIDTH 6 0
BBX 5 7 1 0
BITMAP
F0
F0
10
70
90
90
68
ENDCHAR
STARTCHAR adieresis
ENCODING 228
SWIDTH 42 0
DWIDTH 6 0
BBX 5 7 1 0
BITMAP
50
F0
10
70
90
90
68
ENDCHAR
STARTCHAR aring
ENCODING 229
SWIDTH 42 0
DWIDTH 6 0
BBX 5 8 1 0
BITMAP
60
90
F0
10
70
90
90
68
ENDCHAR
STARTCHAR ae
ENCODING 230
SWIDTH 42 0
DWIDTH 9 0
BBX 7 6 1 0
BITMAP
EC
12
7E
90
B8
EE
ENDCHAR
STARTCHAR ccedilla
ENCODING 231
SWIDTH 42 0
DWIDTH 6 0
BBX 5 8 0 -2
BITMAP
78
C8
80
80
C0
78
10
30
ENDCHAR
STARTCHAR egrave
ENCODING 232
SWIDTH 42 0
DWIDTH 6 0
BBX 5 7 0 0
BITMAP
20
70
88
F8
80
C0
78
ENDCHAR
STARTCHAR eacute
ENCODING 233
SWIDTH 42 0
DWIDTH 6 0
BBX 5 7 0 0
BITMAP
20
70
88
F8
80
C0
78
ENDCHAR
STARTCHAR ecircumflex
ENCODING 234
SWIDTH 42 0
DWIDTH 6 0
BBX 5 7 0 0
BITMAP
38
70
88
F8
80
C0
78
ENDCHAR
STARTCHAR edieresis
ENCODING 235
SWIDTH 42 0
DWIDTH 6 0
BBX 5 7 0 0
BITMAP
50
70
88
F8
80
C0
78
ENDCHAR
STARTCHAR igrave
ENCODING 236
SWIDTH 42 0
DWIDTH 3 0
BBX 3 7 0 0
BITMAP
C0
C0
40
40
40
40
E0
ENDCHAR
STARTCHAR iacute
ENCODING 237
SWIDTH 42 0
DWIDTH 3 0
BBX 3 7 0 0
BITMAP
60
C0
40
40
40
40
E0
ENDCHAR
STARTCHAR icircumflex
ENCODING 238
SWIDTH 42 0
DWIDTH 3 0
BBX 4 7 1 0
BITMAP
F0
60
20
20
20
20
70
ENDCHAR
STARTCHAR idieresis
ENCODING 239
SWIDTH 42 0
DWIDTH 3 0
BBX 3 7 0 0
BITMAP
A0
C0
40
40
40
40
E0
ENDCHAR
STARTCHAR eth
ENCODING 240
SWIDTH 42 0
DWIDTH 7 0
BBX 6 9 0 0
BITMAP
F8
30
D8
7C
CC
84
84
CC
78
ENDCHAR
STARTCHAR ntilde
ENCODING 241
SWIDTH 42 0
DWIDTH 7 0
BBX 7 7 0 0
BITMAP
78
FC
44
44
44
44
EE
ENDCHAR
STARTCHAR ograve
ENCODING 242
SWIDTH 42 0
DWIDTH 7 0
BBX 6 7 0 0
BITMAP
10
78
CC
84
84
CC
78
ENDCHAR
STARTCHAR oacute
ENCODING 243
SWIDTH 42 0
DWIDTH 7 0
BBX 6 7 0 0
BITMAP
20
78
CC
84
84
CC
78
ENDCHAR
STARTCHAR ocircumflex
ENCODING 244
SWIDTH 42 0
DWIDTH 7 0
BBX 6 7 0 0
BITMAP
30
78
CC
84
84
CC
78
ENDCHAR
STARTCHAR otilde
ENCODING 245
SWIDTH 42 0
DWIDTH 7 0
BBX 6 7 0 0
BITMAP
78
78
CC
84
84
CC
78
ENDCHAR
STARTCHAR odieresis
ENCODING 246
SWIDTH 42 0
DWIDTH 7 0
BBX 6 7 0 0
BITMAP
50
78
CC
84
84
CC
78
ENDCHAR
STARTCHAR divide
ENCODING 247
SWIDTH 42 0
DWIDTH 7 0
BBX 7 6 0 0
BITMAP
10
00
00
FE
00
10
ENDCHAR
STARTCHAR oslash
ENCODING 248
SWIDTH 42 0
DWIDTH 7 0
BBX 6 6 0 0
BITMAP
74
CC
9C
E4
CC
B8
ENDCHAR
STARTCHAR ugrave
ENCODING 249
SWIDTH 42 0
DWIDTH 7 0
BBX 7 7 0 0
BITMAP
30
CC
44
44
44
44
7E
ENDCHAR
STARTCHAR uacute
ENCODING 250
SWIDTH 42 0
DWIDTH 7 0
BBX 7 7 0 0
BITMAP
18
CC
44
44
44
44
7E
ENDCHAR
STARTCHAR ucircumflex
ENCODING 251
SWIDTH 42 0
DWIDTH 7 0
BBX 7 7 0 0
BITMAP
3C
CC
44
44
44
44
7E
ENDCHAR
STARTCHAR udieresis
ENCODING 252
SWIDTH 42 0
DWIDTH 7 0
BBX 7 7 0 0
BITMAP
28
CC
44
44
44
44
7E
ENDCHAR
STARTCHAR yacute
ENCODING 253
SWIDTH 42 0
DWIDTH 6 0
BBX 6 9 0 -2
BITMAP
30
EC
44
48
28
30
10
20
60
ENDCHAR
STARTCHAR thorn
ENCODING 254
SWIDTH 42 0
DWIDTH 7 0
BBX 6 11 0 -2
BITMAP
C0
40
40
78
44
44
44
44
78
40
E0
ENDCHAR
STARTCHAR ydieresis
ENCODING 255
SWIDTH 42 0
DWIDTH 6 0
BBX 6 9 0 -2
BITMAP
28
EC
44
48
28
30
10
20
60
ENDCHAR
STARTCHAR fl
ENCODING -1
SWIDTH 42 0
DWIDTH 7 0
BBX 7 9 0 0
BITMAP
7C
44
44
F4
44
44
44
44
EE
ENDCHAR
STARTCHAR endash
ENCODING -1
SWIDTH 42 0
DWIDTH 5 0
BBX 4 1 1 3
BITMAP
F0
ENDCHAR
STARTCHAR dagger
ENCODING -1
SWIDTH 42 0
DWIDTH 7 0
BBX 5 11 1 -2
BITMAP
20
20
20
F8
20
20
20
20
20
20
20
ENDCHAR
STARTCHAR Zcaron
ENCODING -1
SWIDTH 42 0
DWIDTH 7 0
BBX 5 10 1 0
BITMAP
30
F8
90
10
20
20
60
40
48
F8
ENDCHAR
STARTCHAR oe
ENCODING -1
SWIDTH 42 0
DWIDTH 10 0
BBX 9 6 0 0
BITMAP
7700
CC80
8F80
8800
CC00
7380
ENDCHAR
STARTCHAR Ydieresis
ENCODING -1
SWIDTH 42 0
DWIDTH 7 0
BBX 7 10 0 0
BITMAP
28
E6
44
24
28
18
10
10
10
38
ENDCHAR
STARTCHAR dotlessi
ENCODING -1
SWIDTH 42 0
DWIDTH 3 0
BBX 3 6 0 0
BITMAP
C0
40
40
40
40
E0
ENDCHAR
STARTCHAR lslash
ENCODING -1
SWIDTH 42 0
DWIDTH 3 0
BBX 3 9 0 0
BITMAP
C0
40
40
60
C0
C0
40
40
E0
ENDCHAR
STARTCHAR Lslash
ENCODING -1
SWIDTH 42 0
DWIDTH 6 0
BBX 6 9 0 0
BITMAP
E0
40
40
60
C0
C0
40
44
FC
ENDCHAR
STARTCHAR daggerdbl
ENCODING -1
SWIDTH 42 0
DWIDTH 7 0
BBX 5 11 1 -2
BITMAP
20
20
20
F8
20
20
20
F8
20
20
20
ENDCHAR
STARTCHAR fi
ENCODING -1
SWIDTH 42 0
DWIDTH 7 0
BBX 7 9 0 0
BITMAP
74
50
40
FC
44
44
44
44
EE
ENDCHAR
STARTCHAR guilsinglright
ENCODING -1
SWIDTH 42 0
DWIDTH 4 0
BBX 3 6 0 0
BITMAP
80
40
60
60
40
80
ENDCHAR
STARTCHAR OE
ENCODING -1
SWIDTH 42 0
DWIDTH 11 0
BBX 10 9 1 0
BITMAP
37C0
4C40
8400
8480
8780
8480
8400
4C40
37C0
ENDCHAR
STARTCHAR emdash
ENCODING -1
SWIDTH 42 0
DWIDTH 11 0
BBX 10 1 1 3
BITMAP
FFC0
ENDCHAR
STARTCHAR caron
ENCODING -1
SWIDTH 42 0
DWIDTH 7 0
BBX 4 1 1 8
BITMAP
F0
ENDCHAR
STARTCHAR ogonek
ENCODING -1
SWIDTH 42 0
DWIDTH 7 0
BBX 2 1 3 -2
BITMAP
C0
ENDCHAR
STARTCHAR hungarumlaut
ENCODING -1
SWIDTH 42 0
DWIDTH 7 0
BBX 3 1 2 8
BITMAP
E0
ENDCHAR
STARTCHAR guilsinglleft
ENCODING -1
SWIDTH 42 0
DWIDTH 4 0
BBX 3 6 0 0
BITMAP
20
40
C0
C0
40
20
ENDCHAR
STARTCHAR dotaccent
ENCODING -1
SWIDTH 42 0
DWIDTH 7 0
BBX 1 1 3 8
BITMAP
80
ENDCHAR
STARTCHAR breve
ENCODING -1
SWIDTH 42 0
DWIDTH 7 0
BBX 4 1 1 8
BITMAP
F0
ENDCHAR
STARTCHAR bullet
ENCODING -1
SWIDTH 42 0
DWIDTH 7 0
BBX 3 3 2 2
BITMAP
E0
E0
E0
ENDCHAR
STARTCHAR tilde
ENCODING -1
SWIDTH 42 0
DWIDTH 7 0
BBX 4 1 1 8
BITMAP
F0
ENDCHAR
STARTCHAR circumflex
ENCODING -1
SWIDTH 42 0
DWIDTH 7 0
BBX 4 1 1 8
BITMAP
F0
ENDCHAR
STARTCHAR quotedblleft
ENCODING -1
SWIDTH 42 0
DWIDTH 5 0
BBX 4 4 1 5
BITMAP
B0
A0
A0
B0
ENDCHAR
STARTCHAR quotesingle
ENCODING -1
SWIDTH 42 0
DWIDTH 3 0
BBX 2 4 0 5
BITMAP
C0
C0
40
40
ENDCHAR
STARTCHAR scaron
ENCODING -1
SWIDTH 42 0
DWIDTH 6 0
BBX 4 7 1 0
BITMAP
60
F0
90
C0
B0
90
E0
ENDCHAR
STARTCHAR ring
ENCODING -1
SWIDTH 42 0
DWIDTH 7 0
BBX 4 3 3 7
BITMAP
60
90
60
ENDCHAR
STARTCHAR quotesinglbase
ENCODING -1
SWIDTH 42 0
DWIDTH 3 0
BBX 1 4 1 -2
BITMAP
80
80
80
80
ENDCHAR
STARTCHAR florin
ENCODING -1
SWIDTH 42 0
DWIDTH 7 0
BBX 5 11 1 -2
BITMAP
38
48
40
40
E0
40
40
80
80
80
80
ENDCHAR
STARTCHAR trademark
ENCODING -1
SWIDTH 42 0
DWIDTH 10 0
BBX 11 5 0 4
BITMAP
FF60
23C0
23C0
22C0
7660
ENDCHAR
STARTCHAR fraction
ENCODING -1
SWIDTH 42 0
DWIDTH 0 0
BBX 7 9 -2 0
BITMAP
02
04
0C
08
10
20
60
40
80
ENDCHAR
STARTCHAR grave
ENCODING -1
SWIDTH 42 0
DWIDTH 7 0
BBX 2 1 2 8
BITMAP
C0
ENDCHAR
STARTCHAR perthousand
ENCODING -1
SWIDTH 42 0
DWIDTH 11 0
BBX 9 9 1 0
BITMAP
4400
A800
A800
5000
3900
3680
5680
5680
8900
ENDCHAR
STARTCHAR ellipsis
ENCODING -1
SWIDTH 42 0
DWIDTH 11 0
BBX 7 1 2 0
BITMAP
92
ENDCHAR
STARTCHAR quotedblright
ENCODING -1
SWIDTH 42 0
DWIDTH 5 0
BBX 4 4 1 5
BITMAP
90
90
90
90
ENDCHAR
STARTCHAR Scaron
ENCODING -1
SWIDTH 42 0
DWIDTH 6 0
BBX 5 10 1 0
BITMAP
E0
78
88
80
C0
30
18
08
88
F0
ENDCHAR
STARTCHAR quotedblbase
ENCODING -1
SWIDTH 42 0
DWIDTH 5 0
BBX 4 4 1 -2
BITMAP
90
90
90
90
ENDCHAR
STARTCHAR zcaron
ENCODING -1
SWIDTH 42 0
DWIDTH 7 0
BBX 5 7 1 0
BITMAP
60
F8
90
20
60
48
F8
ENDCHAR
ENDFONT
